<svg width="59" height="49" viewBox="0 0 59 49" fill="none" xmlns="http://www.w3.org/2000/svg">
<path fill-rule="evenodd" clip-rule="evenodd" d="M16.038 0.482602C25.1383 -0.203164 34.279 -0.158019 43.3721 0.617602L48.8498 1.08335C50.8611 1.25459 52.7564 2.0972 54.2311 3.47572C55.7057 4.85424 56.6739 6.68859 56.9801 8.68385L57.3244 10.9417C58.4977 18.5958 58.3882 26.3918 57.0004 34.0099C56.6685 35.8312 55.7081 37.4784 54.2865 38.6644C52.865 39.8503 51.0723 40.4999 49.221 40.5H18.927C18.2284 40.5 17.5432 40.6721 16.929 41.0029L3.72938 48.0971C3.34366 48.3044 2.91077 48.408 2.47302 48.3979C2.03526 48.3879 1.6076 48.2644 1.23182 48.0396C0.856051 47.8148 0.545015 47.4964 0.329106 47.1155C0.113198 46.7345 -0.000196784 46.3041 2.56351e-07 45.8662V17.1214C0.000868853 12.9258 1.58669 8.8855 4.43988 5.80951C7.29308 2.73352 11.203 0.848955 15.3866 0.533227L16.038 0.482602ZM16.0312 17.1787C14.9124 17.1787 13.8393 17.6232 13.0481 18.4144C12.257 19.2055 11.8125 20.2786 11.8125 21.3975C11.8125 22.5164 12.257 23.5894 13.0481 24.3806C13.8393 25.1718 14.9124 25.6162 16.0312 25.6162C17.1501 25.6162 18.2232 25.1718 19.0144 24.3806C19.8055 23.5894 20.25 22.5164 20.25 21.3975C20.25 20.2786 19.8055 19.2055 19.0144 18.4144C18.2232 17.6232 17.1501 17.1787 16.0312 17.1787ZM29.5312 17.1787C28.4124 17.1787 27.3393 17.6232 26.5481 18.4144C25.757 19.2055 25.3125 20.2786 25.3125 21.3975C25.3125 22.5164 25.757 23.5894 26.5481 24.3806C27.3393 25.1718 28.4124 25.6162 29.5312 25.6162C30.6501 25.6162 31.7232 25.1718 32.5144 24.3806C33.3055 23.5894 33.75 22.5164 33.75 21.3975C33.75 20.2786 33.3055 19.2055 32.5144 18.4144C31.7232 17.6232 30.6501 17.1787 29.5312 17.1787ZM38.8125 21.3975C38.8125 20.2786 39.257 19.2055 40.0481 18.4144C40.8393 17.6232 41.9124 17.1787 43.0312 17.1787C44.1501 17.1787 45.2232 17.6232 46.0144 18.4144C46.8055 19.2055 47.25 20.2786 47.25 21.3975C47.25 22.5164 46.8055 23.5894 46.0144 24.3806C45.2232 25.1718 44.1501 25.6162 43.0312 25.6162C41.9124 25.6162 40.8393 25.1718 40.0481 24.3806C39.257 23.5894 38.8125 22.5164 38.8125 21.3975Z" fill="#9FC031"/>
</svg>
