<svg width="210" height="49" viewBox="0 0 210 49" fill="none" xmlns="http://www.w3.org/2000/svg">
<path d="M74.36 36C74.0667 36 73.8267 35.9067 73.64 35.72C73.4533 35.5333 73.36 35.2933 73.36 35V16.2C73.36 15.9067 73.4533 15.6667 73.64 15.48C73.8267 15.2933 74.0667 15.2 74.36 15.2H79.08C79.3467 15.2 79.5733 15.2933 79.76 15.48C79.9733 15.6667 80.08 15.9067 80.08 16.2V35C80.08 35.2933 79.9733 35.5333 79.76 35.72C79.5733 35.9067 79.3467 36 79.08 36H74.36ZM74.32 12.2C74.0267 12.2 73.7867 12.1067 73.6 11.92C73.4133 11.7333 73.32 11.4933 73.32 11.2V7.64C73.32 7.34667 73.4133 7.10667 73.6 6.92C73.7867 6.70667 74.0267 6.60001 74.32 6.60001H79.08C79.3733 6.60001 79.6133 6.70667 79.8 6.92C80.0133 7.10667 80.12 7.34667 80.12 7.64V11.2C80.12 11.4933 80.0133 11.7333 79.8 11.92C79.6133 12.1067 79.3733 12.2 79.08 12.2H74.32Z" fill="#9FC031"/>
<path d="M85.5903 36C85.3237 36 85.0837 35.9067 84.8703 35.72C84.6837 35.5333 84.5903 35.2933 84.5903 35V31.88C84.5903 31.5867 84.6437 31.3333 84.7503 31.12C84.8837 30.9067 85.0437 30.7067 85.2303 30.52L94.5903 20.36H85.9503C85.657 20.36 85.4037 20.2667 85.1903 20.08C85.0037 19.8933 84.9103 19.6533 84.9103 19.36V16.2C84.9103 15.9067 85.0037 15.6667 85.1903 15.48C85.4037 15.2933 85.657 15.2 85.9503 15.2H102.03C102.297 15.2 102.524 15.2933 102.71 15.48C102.924 15.6667 103.03 15.9067 103.03 16.2V19.6C103.03 19.84 102.977 20.0533 102.87 20.24C102.764 20.4267 102.63 20.6133 102.47 20.8L93.3503 30.84H102.83C103.124 30.84 103.364 30.9333 103.55 31.12C103.737 31.3067 103.83 31.5467 103.83 31.84V35C103.83 35.2933 103.737 35.5333 103.55 35.72C103.364 35.9067 103.124 36 102.83 36H85.5903Z" fill="#9FC031"/>
<path d="M108.501 36C108.207 36 107.967 35.9067 107.781 35.72C107.594 35.5333 107.501 35.2933 107.501 35V16.2C107.501 15.9067 107.594 15.6667 107.781 15.48C107.967 15.2933 108.207 15.2 108.501 15.2H113.221C113.487 15.2 113.714 15.2933 113.901 15.48C114.114 15.6667 114.221 15.9067 114.221 16.2V35C114.221 35.2933 114.114 35.5333 113.901 35.72C113.714 35.9067 113.487 36 113.221 36H108.501ZM108.461 12.2C108.167 12.2 107.927 12.1067 107.741 11.92C107.554 11.7333 107.461 11.4933 107.461 11.2V7.64C107.461 7.34667 107.554 7.10667 107.741 6.92C107.927 6.70667 108.167 6.60001 108.461 6.60001H113.221C113.514 6.60001 113.754 6.70667 113.941 6.92C114.154 7.10667 114.261 7.34667 114.261 7.64V11.2C114.261 11.4933 114.154 11.7333 113.941 11.92C113.754 12.1067 113.514 12.2 113.221 12.2H108.461Z" fill="#9FC031"/>
<path d="M130.24 36.4C127.813 36.4 125.827 35.9333 124.28 35C122.76 34.04 121.627 32.7467 120.88 31.12C120.133 29.4933 119.72 27.64 119.64 25.56C119.613 24.4667 119.6 23.2933 119.6 22.04C119.6 20.7867 119.613 19.5867 119.64 18.44C119.72 16.36 120.133 14.5067 120.88 12.88C121.627 11.2267 122.76 9.93334 124.28 9.00001C125.827 8.06667 127.813 7.60001 130.24 7.60001C132.133 7.60001 133.747 7.86667 135.08 8.40001C136.413 8.93334 137.493 9.64001 138.32 10.52C139.173 11.3733 139.8 12.3067 140.2 13.32C140.627 14.3067 140.867 15.28 140.92 16.24C140.947 16.48 140.867 16.68 140.68 16.84C140.52 16.9733 140.32 17.04 140.08 17.04H139.28C139.067 17.04 138.88 16.9867 138.72 16.88C138.56 16.7467 138.453 16.52 138.4 16.2C137.893 13.8267 136.933 12.2 135.52 11.32C134.133 10.44 132.373 10 130.24 10C127.813 10 125.88 10.6933 124.44 12.08C123.027 13.44 122.267 15.6267 122.16 18.64C122.08 20.8267 122.08 23.0667 122.16 25.36C122.267 28.3733 123.027 30.5733 124.44 31.96C125.88 33.32 127.813 34 130.24 34C132.373 34 134.133 33.56 135.52 32.68C136.933 31.8 137.893 30.1733 138.4 27.8C138.453 27.48 138.56 27.2667 138.72 27.16C138.88 27.0267 139.067 26.96 139.28 26.96H140.08C140.32 26.96 140.52 27.04 140.68 27.2C140.867 27.3333 140.947 27.52 140.92 27.76C140.867 28.72 140.627 29.7067 140.2 30.72C139.8 31.7067 139.173 32.64 138.32 33.52C137.493 34.3733 136.413 35.0667 135.08 35.6C133.747 36.1333 132.133 36.4 130.24 36.4Z" fill="white"/>
<path d="M147.215 36C146.948 36 146.735 35.92 146.575 35.76C146.415 35.6 146.335 35.3867 146.335 35.12V8.48001C146.335 8.21334 146.415 8.00001 146.575 7.84001C146.735 7.68001 146.948 7.60001 147.215 7.60001H147.895C148.161 7.60001 148.375 7.68001 148.535 7.84001C148.695 8.00001 148.775 8.21334 148.775 8.48001V17.96C149.495 17.0267 150.361 16.2667 151.375 15.68C152.415 15.0933 153.788 14.8 155.495 14.8C157.308 14.8 158.815 15.2 160.015 16C161.241 16.7733 162.148 17.84 162.735 19.2C163.348 20.5333 163.655 22.0533 163.655 23.76V35.12C163.655 35.3867 163.575 35.6 163.415 35.76C163.255 35.92 163.041 36 162.775 36H162.095C161.828 36 161.615 35.92 161.455 35.76C161.295 35.6 161.215 35.3867 161.215 35.12V23.96C161.215 21.8267 160.695 20.16 159.655 18.96C158.615 17.7333 157.095 17.12 155.095 17.12C153.201 17.12 151.668 17.7333 150.495 18.96C149.348 20.16 148.775 21.8267 148.775 23.96V35.12C148.775 35.3867 148.695 35.6 148.535 35.76C148.375 35.92 148.161 36 147.895 36H147.215Z" fill="white"/>
<path d="M175.528 36.4C174.247 36.4 173.061 36.1333 171.967 35.6C170.901 35.0667 170.034 34.36 169.367 33.48C168.701 32.5733 168.368 31.56 168.368 30.44C168.368 28.6267 169.101 27.1733 170.567 26.08C172.034 24.9867 173.941 24.28 176.287 23.96L182.607 23.08V21.68C182.607 20.2667 182.167 19.16 181.287 18.36C180.434 17.5333 179.061 17.12 177.167 17.12C175.781 17.12 174.661 17.4 173.807 17.96C172.954 18.4933 172.367 19.2 172.047 20.08C171.914 20.48 171.661 20.68 171.287 20.68H170.647C170.327 20.68 170.101 20.6 169.967 20.44C169.834 20.2533 169.767 20.04 169.767 19.8C169.767 19.4267 169.901 18.96 170.167 18.4C170.461 17.84 170.901 17.2933 171.487 16.76C172.074 16.2 172.834 15.7333 173.767 15.36C174.701 14.9867 175.834 14.8 177.167 14.8C178.741 14.8 180.034 15.0133 181.048 15.44C182.088 15.8667 182.887 16.4267 183.447 17.12C184.034 17.7867 184.447 18.5333 184.688 19.36C184.928 20.1867 185.048 21 185.048 21.8V35.12C185.048 35.3867 184.967 35.6 184.807 35.76C184.647 35.92 184.434 36 184.167 36H183.487C183.221 36 183.008 35.92 182.847 35.76C182.688 35.6 182.607 35.3867 182.607 35.12V33.24C182.287 33.72 181.834 34.2 181.247 34.68C180.661 35.16 179.901 35.5733 178.967 35.92C178.061 36.24 176.914 36.4 175.528 36.4ZM175.927 34.08C177.154 34.08 178.274 33.8133 179.287 33.28C180.301 32.7467 181.101 31.9333 181.688 30.84C182.301 29.72 182.607 28.32 182.607 26.64V25.28L177.447 26C175.261 26.2933 173.607 26.8 172.487 27.52C171.367 28.24 170.807 29.1467 170.807 30.24C170.807 31.12 171.061 31.84 171.567 32.4C172.074 32.96 172.714 33.3867 173.487 33.68C174.287 33.9467 175.101 34.08 175.927 34.08Z" fill="white"/>
<path d="M198.177 36C196.791 36 195.697 35.7067 194.897 35.12C194.097 34.5333 193.537 33.7333 193.217 32.72C192.897 31.7067 192.737 30.5733 192.737 29.32V17.52H189.618C189.351 17.52 189.138 17.44 188.978 17.28C188.818 17.12 188.737 16.9067 188.737 16.64V16.08C188.737 15.8133 188.818 15.6 188.978 15.44C189.138 15.28 189.351 15.2 189.618 15.2H192.737V8.48001C192.737 8.21334 192.818 8.00001 192.978 7.84001C193.138 7.68001 193.351 7.60001 193.618 7.60001H194.298C194.564 7.60001 194.778 7.68001 194.938 7.84001C195.097 8.00001 195.177 8.21334 195.177 8.48001V15.2H200.137C200.404 15.2 200.617 15.28 200.777 15.44C200.937 15.6 201.018 15.8133 201.018 16.08V16.64C201.018 16.9067 200.937 17.12 200.777 17.28C200.617 17.44 200.404 17.52 200.137 17.52H195.177V29.16C195.177 30.5733 195.404 31.68 195.857 32.48C196.337 33.28 197.177 33.68 198.377 33.68H200.537C200.804 33.68 201.017 33.76 201.177 33.92C201.337 34.08 201.417 34.2933 201.417 34.56V35.12C201.417 35.3867 201.337 35.6 201.177 35.76C201.017 35.92 200.804 36 200.537 36H198.177Z" fill="white"/>
<path fill-rule="evenodd" clip-rule="evenodd" d="M16.038 0.482602C25.1383 -0.203164 34.279 -0.158019 43.3721 0.617602L48.8498 1.08335C50.8611 1.25459 52.7564 2.0972 54.2311 3.47572C55.7057 4.85424 56.6739 6.68859 56.9801 8.68385L57.3244 10.9417C58.4977 18.5958 58.3882 26.3918 57.0004 34.0099C56.6685 35.8312 55.7081 37.4784 54.2865 38.6644C52.865 39.8503 51.0723 40.4999 49.221 40.5H18.927C18.2284 40.5 17.5432 40.6721 16.929 41.0029L3.72938 48.0971C3.34366 48.3044 2.91077 48.408 2.47302 48.3979C2.03526 48.3879 1.6076 48.2644 1.23182 48.0396C0.856051 47.8148 0.545015 47.4964 0.329106 47.1155C0.113198 46.7345 -0.000196784 46.3041 2.56351e-07 45.8662V17.1214C0.000868853 12.9258 1.58669 8.8855 4.43988 5.80951C7.29308 2.73352 11.203 0.848955 15.3866 0.533227L16.038 0.482602ZM16.0312 17.1787C14.9124 17.1787 13.8393 17.6232 13.0481 18.4144C12.257 19.2055 11.8125 20.2786 11.8125 21.3975C11.8125 22.5164 12.257 23.5894 13.0481 24.3806C13.8393 25.1718 14.9124 25.6162 16.0312 25.6162C17.1501 25.6162 18.2232 25.1718 19.0144 24.3806C19.8055 23.5894 20.25 22.5164 20.25 21.3975C20.25 20.2786 19.8055 19.2055 19.0144 18.4144C18.2232 17.6232 17.1501 17.1787 16.0312 17.1787ZM29.5312 17.1787C28.4124 17.1787 27.3393 17.6232 26.5481 18.4144C25.757 19.2055 25.3125 20.2786 25.3125 21.3975C25.3125 22.5164 25.757 23.5894 26.5481 24.3806C27.3393 25.1718 28.4124 25.6162 29.5312 25.6162C30.6501 25.6162 31.7232 25.1718 32.5144 24.3806C33.3055 23.5894 33.75 22.5164 33.75 21.3975C33.75 20.2786 33.3055 19.2055 32.5144 18.4144C31.7232 17.6232 30.6501 17.1787 29.5312 17.1787ZM38.8125 21.3975C38.8125 20.2786 39.257 19.2055 40.0481 18.4144C40.8393 17.6232 41.9124 17.1787 43.0312 17.1787C44.1501 17.1787 45.2232 17.6232 46.0144 18.4144C46.8055 19.2055 47.25 20.2786 47.25 21.3975C47.25 22.5164 46.8055 23.5894 46.0144 24.3806C45.2232 25.1718 44.1501 25.6162 43.0312 25.6162C41.9124 25.6162 40.8393 25.1718 40.0481 24.3806C39.257 23.5894 38.8125 22.5164 38.8125 21.3975Z" fill="#9FC031"/>
</svg>
