<svg width="210" height="49" viewBox="0 0 210 49" fill="none" xmlns="http://www.w3.org/2000/svg">
<path d="M82.36 36C82.0667 36 81.8267 35.9067 81.64 35.72C81.4533 35.5333 81.36 35.2933 81.36 35V16.2C81.36 15.9067 81.4533 15.6667 81.64 15.48C81.8267 15.2933 82.0667 15.2 82.36 15.2H87.08C87.3467 15.2 87.5733 15.2933 87.76 15.48C87.9733 15.6667 88.08 15.9067 88.08 16.2V35C88.08 35.2933 87.9733 35.5333 87.76 35.72C87.5733 35.9067 87.3467 36 87.08 36H82.36ZM82.32 12.2C82.0267 12.2 81.7867 12.1067 81.6 11.92C81.4133 11.7333 81.32 11.4933 81.32 11.2V7.64C81.32 7.34667 81.4133 7.10667 81.6 6.92C81.7867 6.70667 82.0267 6.60001 82.32 6.60001H87.08C87.3733 6.60001 87.6133 6.70667 87.8 6.92C88.0133 7.10667 88.12 7.34667 88.12 7.64V11.2C88.12 11.4933 88.0133 11.7333 87.8 11.92C87.6133 12.1067 87.3733 12.2 87.08 12.2H82.32Z" fill="#9FC031"/>
<path d="M93.5903 36C93.3237 36 93.0837 35.9067 92.8703 35.72C92.6837 35.5333 92.5903 35.2933 92.5903 35V31.88C92.5903 31.5867 92.6437 31.3333 92.7503 31.12C92.8837 30.9067 93.0437 30.7067 93.2303 30.52L102.59 20.36H93.9503C93.657 20.36 93.4037 20.2667 93.1903 20.08C93.0037 19.8933 92.9103 19.6533 92.9103 19.36V16.2C92.9103 15.9067 93.0037 15.6667 93.1903 15.48C93.4037 15.2933 93.657 15.2 93.9503 15.2H110.03C110.297 15.2 110.524 15.2933 110.71 15.48C110.924 15.6667 111.03 15.9067 111.03 16.2V19.6C111.03 19.84 110.977 20.0533 110.87 20.24C110.764 20.4267 110.63 20.6133 110.47 20.8L101.35 30.84H110.83C111.124 30.84 111.364 30.9333 111.55 31.12C111.737 31.3067 111.83 31.5467 111.83 31.84V35C111.83 35.2933 111.737 35.5333 111.55 35.72C111.364 35.9067 111.124 36 110.83 36H93.5903Z" fill="#9FC031"/>
<path d="M116.501 36C116.207 36 115.967 35.9067 115.781 35.72C115.594 35.5333 115.501 35.2933 115.501 35V16.2C115.501 15.9067 115.594 15.6667 115.781 15.48C115.967 15.2933 116.207 15.2 116.501 15.2H121.221C121.487 15.2 121.714 15.2933 121.901 15.48C122.114 15.6667 122.221 15.9067 122.221 16.2V35C122.221 35.2933 122.114 35.5333 121.901 35.72C121.714 35.9067 121.487 36 121.221 36H116.501ZM116.461 12.2C116.167 12.2 115.927 12.1067 115.741 11.92C115.554 11.7333 115.461 11.4933 115.461 11.2V7.64C115.461 7.34667 115.554 7.10667 115.741 6.92C115.927 6.70667 116.167 6.60001 116.461 6.60001H121.221C121.514 6.60001 121.754 6.70667 121.941 6.92C122.154 7.10667 122.261 7.34667 122.261 7.64V11.2C122.261 11.4933 122.154 11.7333 121.941 11.92C121.754 12.1067 121.514 12.2 121.221 12.2H116.461Z" fill="#9FC031"/>
<path d="M138.24 36.4C135.813 36.4 133.827 35.9333 132.28 35C130.76 34.04 129.627 32.7467 128.88 31.12C128.133 29.4933 127.72 27.64 127.64 25.56C127.613 24.4667 127.6 23.2933 127.6 22.04C127.6 20.7867 127.613 19.5867 127.64 18.44C127.72 16.36 128.133 14.5067 128.88 12.88C129.627 11.2267 130.76 9.93334 132.28 9.00001C133.827 8.06667 135.813 7.60001 138.24 7.60001C140.133 7.60001 141.747 7.86667 143.08 8.40001C144.413 8.93334 145.493 9.64001 146.32 10.52C147.173 11.3733 147.8 12.3067 148.2 13.32C148.627 14.3067 148.867 15.28 148.92 16.24C148.947 16.48 148.867 16.68 148.68 16.84C148.52 16.9733 148.32 17.04 148.08 17.04H147.28C147.067 17.04 146.88 16.9867 146.72 16.88C146.56 16.7467 146.453 16.52 146.4 16.2C145.893 13.8267 144.933 12.2 143.52 11.32C142.133 10.44 140.373 10 138.24 10C135.813 10 133.88 10.6933 132.44 12.08C131.027 13.44 130.267 15.6267 130.16 18.64C130.08 20.8267 130.08 23.0667 130.16 25.36C130.267 28.3733 131.027 30.5733 132.44 31.96C133.88 33.32 135.813 34 138.24 34C140.373 34 142.133 33.56 143.52 32.68C144.933 31.8 145.893 30.1733 146.4 27.8C146.453 27.48 146.56 27.2667 146.72 27.16C146.88 27.0267 147.067 26.96 147.28 26.96H148.08C148.32 26.96 148.52 27.04 148.68 27.2C148.867 27.3333 148.947 27.52 148.92 27.76C148.867 28.72 148.627 29.7067 148.2 30.72C147.8 31.7067 147.173 32.64 146.32 33.52C145.493 34.3733 144.413 35.0667 143.08 35.6C141.747 36.1333 140.133 36.4 138.24 36.4Z" fill="white"/>
<path d="M155.215 36C154.948 36 154.735 35.92 154.575 35.76C154.415 35.6 154.335 35.3867 154.335 35.12V8.48001C154.335 8.21334 154.415 8.00001 154.575 7.84001C154.735 7.68001 154.948 7.60001 155.215 7.60001H155.895C156.161 7.60001 156.375 7.68001 156.535 7.84001C156.695 8.00001 156.775 8.21334 156.775 8.48001V17.96C157.495 17.0267 158.361 16.2667 159.375 15.68C160.415 15.0933 161.788 14.8 163.495 14.8C165.308 14.8 166.815 15.2 168.015 16C169.241 16.7733 170.148 17.84 170.735 19.2C171.348 20.5333 171.655 22.0533 171.655 23.76V35.12C171.655 35.3867 171.575 35.6 171.415 35.76C171.255 35.92 171.041 36 170.775 36H170.095C169.828 36 169.615 35.92 169.455 35.76C169.295 35.6 169.215 35.3867 169.215 35.12V23.96C169.215 21.8267 168.695 20.16 167.655 18.96C166.615 17.7333 165.095 17.12 163.095 17.12C161.201 17.12 159.668 17.7333 158.495 18.96C157.348 20.16 156.775 21.8267 156.775 23.96V35.12C156.775 35.3867 156.695 35.6 156.535 35.76C156.375 35.92 156.161 36 155.895 36H155.215Z" fill="white"/>
<path d="M183.528 36.4C182.247 36.4 181.061 36.1333 179.967 35.6C178.901 35.0667 178.034 34.36 177.367 33.48C176.701 32.5733 176.368 31.56 176.368 30.44C176.368 28.6267 177.101 27.1733 178.567 26.08C180.034 24.9867 181.941 24.28 184.287 23.96L190.607 23.08V21.68C190.607 20.2667 190.167 19.16 189.287 18.36C188.434 17.5333 187.061 17.12 185.167 17.12C183.781 17.12 182.661 17.4 181.807 17.96C180.954 18.4933 180.367 19.2 180.047 20.08C179.914 20.48 179.661 20.68 179.287 20.68H178.647C178.327 20.68 178.101 20.6 177.967 20.44C177.834 20.2533 177.767 20.04 177.767 19.8C177.767 19.4267 177.901 18.96 178.167 18.4C178.461 17.84 178.901 17.2933 179.487 16.76C180.074 16.2 180.834 15.7333 181.767 15.36C182.701 14.9867 183.834 14.8 185.167 14.8C186.741 14.8 188.034 15.0133 189.048 15.44C190.088 15.8667 190.887 16.4267 191.447 17.12C192.034 17.7867 192.447 18.5333 192.688 19.36C192.928 20.1867 193.048 21 193.048 21.8V35.12C193.048 35.3867 192.967 35.6 192.807 35.76C192.647 35.92 192.434 36 192.167 36H191.487C191.221 36 191.008 35.92 190.847 35.76C190.688 35.6 190.607 35.3867 190.607 35.12V33.24C190.287 33.72 189.834 34.2 189.247 34.68C188.661 35.16 187.901 35.5733 186.967 35.92C186.061 36.24 184.914 36.4 183.528 36.4ZM183.927 34.08C185.154 34.08 186.274 33.8133 187.287 33.28C188.301 32.7467 189.101 31.9333 189.688 30.84C190.301 29.72 190.607 28.32 190.607 26.64V25.28L185.447 26C183.261 26.2933 181.607 26.8 180.487 27.52C179.367 28.24 178.807 29.1467 178.807 30.24C178.807 31.12 179.061 31.84 179.567 32.4C180.074 32.96 180.714 33.3867 181.487 33.68C182.287 33.9467 183.101 34.08 183.927 34.08Z" fill="white"/>
<path d="M206.177 36C204.791 36 203.697 35.7067 202.897 35.12C202.097 34.5333 201.537 33.7333 201.217 32.72C200.897 31.7067 200.737 30.5733 200.737 29.32V17.52H197.618C197.351 17.52 197.138 17.44 196.978 17.28C196.818 17.12 196.737 16.9067 196.737 16.64V16.08C196.737 15.8133 196.818 15.6 196.978 15.44C197.138 15.28 197.351 15.2 197.618 15.2H200.737V8.48001C200.737 8.21334 200.818 8.00001 200.978 7.84001C201.138 7.68001 201.351 7.60001 201.618 7.60001H202.298C202.564 7.60001 202.778 7.68001 202.938 7.84001C203.097 8.00001 203.177 8.21334 203.177 8.48001V15.2H208.137C208.404 15.2 208.617 15.28 208.777 15.44C208.937 15.6 209.018 15.8133 209.018 16.08V16.64C209.018 16.9067 208.937 17.12 208.777 17.28C208.617 17.44 208.404 17.52 208.137 17.52H203.177V29.16C203.177 30.5733 203.404 31.68 203.857 32.48C204.337 33.28 205.177 33.68 206.377 33.68H208.537C208.804 33.68 209.017 33.76 209.177 33.92C209.337 34.08 209.417 34.2933 209.417 34.56V35.12C209.417 35.3867 209.337 35.6 209.177 35.76C209.017 35.92 208.804 36 208.537 36H206.177Z" fill="white"/>
<path fill-rule="evenodd" clip-rule="evenodd" d="M16.038 0.482602C25.1383 -0.203164 34.279 -0.158019 43.3721 0.617602L48.8498 1.08335C50.8611 1.25459 52.7564 2.0972 54.2311 3.47572C55.7057 4.85424 56.6739 6.68859 56.9801 8.68385L57.3244 10.9417C58.4977 18.5958 58.3882 26.3918 57.0004 34.0099C56.6685 35.8312 55.7081 37.4784 54.2865 38.6644C52.865 39.8503 51.0723 40.4999 49.221 40.5H18.927C18.2284 40.5 17.5432 40.6721 16.929 41.0029L3.72938 48.0971C3.34366 48.3044 2.91077 48.408 2.47302 48.3979C2.03526 48.3879 1.6076 48.2644 1.23182 48.0396C0.856051 47.8148 0.545015 47.4964 0.329106 47.1155C0.113198 46.7345 -0.000196784 46.3041 2.56351e-07 45.8662V17.1214C0.000868853 12.9258 1.58669 8.8855 4.43988 5.80951C7.29308 2.73352 11.203 0.848955 15.3866 0.533227L16.038 0.482602ZM16.0312 17.1787C14.9124 17.1787 13.8393 17.6232 13.0481 18.4144C12.257 19.2055 11.8125 20.2786 11.8125 21.3975C11.8125 22.5164 12.257 23.5894 13.0481 24.3806C13.8393 25.1718 14.9124 25.6162 16.0312 25.6162C17.1501 25.6162 18.2232 25.1718 19.0144 24.3806C19.8055 23.5894 20.25 22.5164 20.25 21.3975C20.25 20.2786 19.8055 19.2055 19.0144 18.4144C18.2232 17.6232 17.1501 17.1787 16.0312 17.1787ZM29.5312 17.1787C28.4124 17.1787 27.3393 17.6232 26.5481 18.4144C25.757 19.2055 25.3125 20.2786 25.3125 21.3975C25.3125 22.5164 25.757 23.5894 26.5481 24.3806C27.3393 25.1718 28.4124 25.6162 29.5312 25.6162C30.6501 25.6162 31.7232 25.1718 32.5144 24.3806C33.3055 23.5894 33.75 22.5164 33.75 21.3975C33.75 20.2786 33.3055 19.2055 32.5144 18.4144C31.7232 17.6232 30.6501 17.1787 29.5312 17.1787ZM38.8125 21.3975C38.8125 20.2786 39.257 19.2055 40.0481 18.4144C40.8393 17.6232 41.9124 17.1787 43.0312 17.1787C44.1501 17.1787 45.2232 17.6232 46.0144 18.4144C46.8055 19.2055 47.25 20.2786 47.25 21.3975C47.25 22.5164 46.8055 23.5894 46.0144 24.3806C45.2232 25.1718 44.1501 25.6162 43.0312 25.6162C41.9124 25.6162 40.8393 25.1718 40.0481 24.3806C39.257 23.5894 38.8125 22.5164 38.8125 21.3975Z" fill="#9FC031"/>
</svg>
